HIERARCHY
ROOT root
{
	OFFSET	0	13.1	24.9
	CHANNELS 6  Xposition Yposition Zposition Xrotation Yrotation Zrotation
	JOINT spine_1
	{
		OFFSET	0	9.99999	0
		CHANNELS 3  Xrotation Yrotation Zrotation
		JOINT spine_2
		{
			OFFSET	0	112	-10
			CHANNELS 3  Xrotation Yrotation Zrotation
			JOINT spine_3
			{
				OFFSET	0	206.5	19.3
				CHANNELS 3  Xrotation Yrotation Zrotation
				JOINT spine_4
				{
					OFFSET	0	110.4	14.6
					CHANNELS 3  Xrotation Yrotation Zrotation
					JOINT neck_1
					{
						OFFSET	0	71.8	-50.3
						CHANNELS 3  Xrotation Yrotation Zrotation
						JOINT neck_2
						{
							OFFSET	0	86.2	-25.8
							CHANNELS 3  Xrotation Yrotation Zrotation
							JOINT head_ee
							{
								OFFSET	0	179.8	-8.7
								CHANNELS 3  Xrotation Yrotation Zrotation
								End Site
								{
									OFFSET	1	0	0
								}
							}
						}
					}
					JOINT left_clavicle
					{
						OFFSET	-43.2	22.4	-70.8
						CHANNELS 3  Xrotation Yrotation Zrotation
						JOINT left_shoulder
						{
							OFFSET	-93.9	-5.79999	48.7
							CHANNELS 3  Xrotation Yrotation Zrotation
							JOINT left_elbow
							{
								OFFSET	-291.4	-30.8	15.2
								CHANNELS 3  Xrotation Yrotation Zrotation
								JOINT left_lowarm_twist
								{
									OFFSET	-110.7	-3.89999	13.6
									CHANNELS 3  Xrotation Yrotation Zrotation
									JOINT left_hand
									{
										OFFSET	-110.7	-3.89999	13.6
										CHANNELS 3  Xrotation Yrotation Zrotation
										JOINT left_ee
										{
											OFFSET	-80.8	-5.10001	12.1
											CHANNELS 3  Xrotation Yrotation Zrotation
											End Site
											{
												OFFSET	1	0	0
											}
										}
									}
								}
							}
						}
					}
					JOINT right_clavicle
					{
						OFFSET	43.2	22.4	-70.8
						CHANNELS 3  Xrotation Yrotation Zrotation
						JOINT right_shoulder
						{
							OFFSET	93.9	-5.79999	48.7
							CHANNELS 3  Xrotation Yrotation Zrotation
							JOINT right_elbow
							{
								OFFSET	291.4	-30.8	15.2
								CHANNELS 3  Xrotation Yrotation Zrotation
								JOINT right_lowarm_twist
								{
									OFFSET	110.7	-3.89999	13.6
									CHANNELS 3  Xrotation Yrotation Zrotation
									JOINT right_hand
									{
										OFFSET	110.7	-3.89999	13.6
										CHANNELS 3  Xrotation Yrotation Zrotation
										JOINT right_ee
										{
											OFFSET	80.8	-5.10001	12.1
											CHANNELS 3  Xrotation Yrotation Zrotation
											End Site
											{
												OFFSET	1	0	0
											}
										}
									}
								}
							}
						}
					}
				}
			}
		}
	}
	JOINT left_hip
	{
		OFFSET	-82.8	-127.5	0.300001
		CHANNELS 3  Xrotation Yrotation Zrotation
		JOINT left_knee
		{
			OFFSET	-28.2	-396.7	2.2
			CHANNELS 3  Xrotation Yrotation Zrotation
			JOINT left_ankle
			{
				OFFSET	-11.7	-411.3	35.4
				CHANNELS 3  Xrotation Yrotation Zrotation
				JOINT left_toes
				{
					OFFSET	0	-60	-88.6
					CHANNELS 3  Xrotation Yrotation Zrotation
					JOINT left_foot_ee
					{
						OFFSET	-22.5	-16.5	-42.2
						CHANNELS 3  Xrotation Yrotation Zrotation
						End Site
						{
							OFFSET	1	0	0
						}
					}
				}
			}
		}
	}
	JOINT right_hip
	{
		OFFSET	82.8	-127.5	0.300001
		CHANNELS 3  Xrotation Yrotation Zrotation
		JOINT right_knee
		{
			OFFSET	28.2	-396.7	2.2
			CHANNELS 3  Xrotation Yrotation Zrotation
			JOINT right_ankle
			{
				OFFSET	11.7	-411.3	35.4
				CHANNELS 3  Xrotation Yrotation Zrotation
				JOINT right_toes
				{
					OFFSET	0	-60	-88.6
					CHANNELS 3  Xrotation Yrotation Zrotation
					JOINT right_foot_ee
					{
						OFFSET	22.5	-16.5	-42.2
						CHANNELS 3  Xrotation Yrotation Zrotation
						End Site
						{
							OFFSET	1	0	0
						}
					}
				}
			}
		}
	}
}
MOTION
Frames: 13
Frame Time: 0.02
3501.27 755.03 -1490.75 -8.2318 62.6621 7.48373 2.63841 0.0616774 0.988516 2.63895 -0.00134625 0.990437 2.6388 -0.164709 0.976648 2.63747 -0.00840622 0.990402 -10.1957 16.963 -2.59265 -10.6195 33.7084 1.99846 -0.0 0.0 -0.0 1.92297 6.96547 4.27071 -19.7619 -26.2389 64.897 0.568232 -15.7213 0.0784515 -37.5609 -2.69557 3.88003 -0.906172 21.1987 3.17531 -0.0 0.0 -0.0 10.2476 19.5133 -19.9925 -19.6564 16.774 -64.2612 0.687043 18.7956 -0.113713 5.12698 -0.152218 0.636981 2.57358 0.898358 -17.1098 0.0 0.0 0.0 -0.224165 9.09697 2.54841 -8.15505 0.248877 1.22575 37.3719 21.1963 -4.80553 -36.5796 0.0 0.0 -0.0 0.0 -0.0 8.23355 -3.03386 0.504219 -4.17493 -0.149239 -0.623204 21.6546 27.1337 3.54002 -29.6755 0.0 0.0 0.0 0.0 0.0 
3498.17 757.096 -1493.13 -8.49965 62.9792 7.64875 2.57977 0.068545 0.967027 2.58029 0.00687463 0.969429 2.5803 -0.154111 0.957127 2.57902 -0.00102373 0.969453 -10.9211 16.6844 -2.17015 -11.4293 32.9608 2.56505 -0.0 0.0 -0.0 1.93979 6.99745 4.30332 -18.7306 -25.9118 64.4306 0.655862 -17.9988 0.103873 -37.9401 -2.7348 3.90882 -1.07399 21.1859 2.18462 -0.0 0.0 -0.0 9.58149 19.0694 -18.534 -19.8732 16.6784 -64.5351 0.656917 18.0259 -0.104199 5.10923 -0.151789 0.634755 2.55019 0.889799 -16.9492 0.0 0.0 0.0 -0.105689 9.21721 2.14653 -8.1024 0.247833 1.21774 37.5086 21.0046 -4.81446 -36.6335 0.0 0.0 -0.0 0.0 -0.0 8.11832 -3.48321 0.61861 -4.24772 -0.151437 -0.634158 22.1866 29.9022 3.74127 -29.785 0.0 0.0 0.0 0.0 0.0 
3493.08 756.231 -1497.61 -9.35969 63.2164 8.70437 2.53905 0.112399 0.950889 2.53955 0.0516668 0.956113 2.54032 -0.108387 0.951355 2.53906 0.0432146 0.956533 -10.2026 16.3519 -2.50391 -10.5912 32.4969 1.90447 -0.0 0.0 -0.0 1.86305 7.83493 4.23091 -18.7908 -25.3914 63.1052 0.724724 -19.7485 0.126151 -38.8497 -2.82967 3.97683 -1.35632 20.893 0.396946 -0.0 0.0 -0.0 9.28281 18.3631 -17.9173 -20.627 16.3565 -65.2017 0.61935 17.0565 -0.0928757 5.12243 -0.152108 0.636411 2.51987 0.860884 -16.7484 0.0 0.0 0.0 -0.0672826 8.58323 1.48753 -8.21489 0.250055 1.23486 37.3201 21.1522 -4.79937 -36.9035 0.0 0.0 -0.0 0.0 -0.0 8.40901 -3.5636 0.532867 -4.70891 -0.165037 -0.70363 21.5815 32.042 3.75997 -29.7858 0.0 0.0 0.0 0.0 0.0 
3494.69 756.128 -1499.36 -10.1545 63.5355 9.08147 2.51915 0.168623 0.939132 2.51963 0.108524 0.947957 2.52135 -0.0512731 0.95277 2.5201 0.0998357 0.948911 -11.6463 16.1784 -1.98886 -12.2128 31.937 2.81263 -0.0 0.0 -0.0 1.83814 7.59388 4.16796 -18.125 -25.112 62.9691 0.793749 -21.4647 0.150447 -38.4518 -2.78804 3.94726 -1.35181 21.1355 0.532456 -0.0 0.0 -0.0 8.98362 17.8085 -17.2906 -20.9664 16.146 -65.4778 0.622605 17.1409 -0.0938328 5.15115 -0.1528 0.640015 2.48785 0.848564 -16.5293 0.0 0.0 0.0 0.0700329 9.27611 1.61356 -7.99354 0.245651 1.20118 36.823 20.8544 -4.74319 -36.9018 0.0 0.0 -0.0 0.0 -0.0 8.04232 -3.3044 0.9781 -4.48476 -0.158496 -0.669852 22.6507 33.0761 3.97829 -29.8404 0.0 0.0 0.0 0.0 0.0 
3491.89 754.938 -1507.23 -9.83687 63.1642 8.63224 2.54709 0.182479 0.959083 2.54759 0.121083 0.96875 2.54956 -0.0418805 0.975388 2.54825 0.112682 0.969763 -11.5113 16.6834 -0.624535 -12.0774 32.0134 4.23125 -0.0 0.0 -0.0 1.48708 8.27984 3.60227 -18.3447 -24.7253 61.7064 0.963532 -25.515 0.218162 -38.6279 -2.80644 3.96038 -1.68295 20.968 -1.48864 -0.0 0.0 -0.0 9.1839 16.6424 -17.803 -21.3985 16.2849 -65.6536 0.570207 15.7732 -0.0789877 4.89836 -0.146649 0.608308 2.19842 0.292957 -14.7389 0.0 0.0 0.0 0.531733 9.36998 0.302278 -8.65488 0.258423 1.30186 34.0932 19.2891 -4.43317 -37.4375 0.0 0.0 -0.0 0.0 -0.0 7.23334 -0.304547 1.0988 -4.32483 -0.15375 -0.645767 22.7368 32.5714 3.96235 -29.0538 0.0 0.0 0.0 0.0 0.0 
3488.24 754.787 -1511.3 -9.1382 63.3354 7.7418 2.6032 0.188481 1.1064 2.60388 0.1177 1.11615 2.60605 -0.0686536 1.12023 2.60431 0.109117 1.11702 -12.0177 16.4958 -0.901128 -12.6408 31.8773 4.06979 -0.0 0.0 -0.0 1.61378 8.45688 3.84011 -17.8103 -24.5472 61.0956 1.0248 -26.9142 0.245226 -38.7815 -2.82252 3.97178 -1.80235 21.0959 -2.12984 -0.0 0.0 -0.0 9.13008 16.1757 -17.71 -22.0819 16.1964 -65.7309 0.539813 14.9712 -0.0709304 5.03498 -0.149991 0.62544 2.26123 0.427061 -15.1203 0.0 0.0 0.0 -0.325318 9.43626 0.834609 -8.15629 0.248902 1.22594 33.3635 20.9087 -4.38822 -37.6285 0.0 0.0 -0.0 0.0 -0.0 6.65857 -1.96375 0.667274 -3.58607 -0.130949 -0.534682 22.7351 32.5929 3.9633 -29.7162 0.0 0.0 0.0 0.0 0.0 
3484.23 754.554 -1514.17 -9.42538 63.7971 7.87145 2.52695 0.284537 1.18381 2.5277 0.208637 1.19952 2.53197 0.00567488 1.21751 2.52995 0.197872 1.20134 -11.551 16.924 -0.80076 -12.1456 32.5864 4.15646 -0.0 0.0 -0.0 1.5533 8.69007 3.75309 -17.163 -24.1573 60.4115 1.17508 -30.2026 0.3171 -38.8132 -2.82584 3.97413 -2.17581 21.054 -4.34671 -0.0 0.0 -0.0 9.07528 14.6709 -17.665 -22.9087 16.2877 -65.3862 0.517129 14.3687 -0.0651856 4.77141 -0.143508 0.592396 2.15915 0.246935 -14.4856 0.0 0.0 0.0 -1.12385 9.65908 1.25017 -9.13115 0.266901 1.37445 31.8833 19.7491 -4.20704 -37.5733 0.0 0.0 -0.0 0.0 -0.0 5.46884 -1.13633 0.566351 -3.06033 -0.113851 -0.455808 21.9418 31.1643 3.76826 -29.3494 0.0 0.0 0.0 0.0 0.0 
3476.34 749.414 -1516.73 -8.12322 64.0339 5.99461 2.53562 0.343414 1.21989 2.53641 0.2651 1.23927 2.54205 0.0549535 1.26611 2.5399 0.254207 1.24155 -11.4104 16.7513 -1.15998 -11.9787 32.4758 3.7125 -0.0 0.0 -0.0 1.55319 9.57043 3.82547 -16.6702 -23.2058 60.1539 1.35438 -33.8567 0.412241 -38.9181 -2.83684 3.98188 -2.50232 21.1813 -6.20765 -0.0 0.0 -0.0 9.41098 14.1805 -18.4249 -23.8317 15.8197 -64.9653 0.413663 11.5807 -0.0419482 4.88459 -0.14631 0.606582 1.96379 -0.422301 -13.4065 0.0 0.0 0.0 -0.743771 10.1323 1.11725 -12.0262 0.305426 1.81696 31.2957 19.2886 -4.1351 -38.6878 0.0 0.0 -0.0 0.0 -0.0 3.25158 -0.636232 1.72302 -2.41886 -0.0920092 -0.359784 24.6952 30.961 4.15617 -28.3037 0.0 0.0 0.0 0.0 0.0 
3471.62 746.37 -1520.09 -7.41251 64.4891 5.21296 2.53021 0.393655 1.32137 2.53113 0.308783 1.34373 2.53827 0.0805466 1.37639 2.53574 0.296891 1.34641 -10.5291 16.9476 -1.91365 -10.9979 33.2607 2.76161 -0.0 0.0 -0.0 2.03887 9.05083 4.63094 -16.6152 -21.4168 59.2982 1.51333 -36.8549 0.504248 -38.9141 -2.83643 3.98158 -2.96049 21.1173 -8.95875 -0.0 0.0 -0.0 9.40192 14.2101 -18.4037 -24.9333 15.8263 -65.1925 0.438936 12.2674 -0.0471703 5.26144 -0.15544 0.653856 2.16578 -0.754658 -14.9297 0.0 0.0 0.0 -1.03563 10.3412 0.926976 -11.8654 0.303874 1.79234 29.4854 19.1568 -3.93246 -39.2671 0.0 0.0 -0.0 0.0 -0.0 1.9483 -0.248359 1.47143 -0.567962 -0.0229694 -0.0841333 25.2586 30.5528 4.21241 -29.0688 0.0 0.0 0.0 0.0 0.0 
3466.67 746.835 -1519.85 -7.35747 65.097 5.01468 2.4986 0.477124 1.35868 2.49954 0.389709 1.38628 2.5089 0.152542 1.43191 2.50624 0.376748 1.38986 -10.2143 17.0044 -2.40024 -10.6432 33.6615 2.20318 -0.0 0.0 -0.0 2.23784 8.96951 4.97321 -16.1366 -20.3792 59.4419 1.6338 -38.9815 0.578295 -39.0489 -2.85059 3.99152 -3.20077 21.1458 -10.3776 -0.0 0.0 -0.0 9.49752 14.0525 -18.6207 -26.2153 15.3277 -65.0543 0.382894 10.7402 -0.0359926 5.52314 -0.161596 0.686719 2.14321 -1.40605 -15.0303 0.0 0.0 0.0 -0.811954 10.1602 0.983112 -13.2336 0.314877 2.00196 28.025 19.2957 -3.76859 -39.8934 0.0 0.0 -0.0 0.0 -0.0 0.594482 0.00507576 1.86147 0.615513 0.0258346 0.0909207 25.2051 30.2944 4.19077 -29.5506 0.0 0.0 0.0 0.0 0.0 
3469.53 745.674 -1525.33 -7.27515 65.7719 5.02154 2.48778 0.425445 1.30848 2.48866 0.341329 1.33289 2.49653 0.113453 1.37121 2.49405 0.328567 1.3361 -10.7298 16.9083 -2.56 -11.2288 33.6234 2.19657 -0.0 0.0 -0.0 1.99571 8.61399 4.52367 -15.5984 -19.7366 59.4808 1.77563 -41.3308 0.669774 -39.0277 -2.84836 3.98996 -3.39273 20.9868 -11.6219 -0.0 0.0 -0.0 9.71163 14.828 -19.061 -26.0098 15.6558 -64.9409 0.382054 10.7172 -0.0358363 5.69553 -0.16557 0.708382 2.19237 -1.67817 -15.4764 0.0 0.0 0.0 -0.501311 9.46902 0.617332 -12.9424 0.312955 1.95733 26.92 19.4413 -3.64261 -40.1163 0.0 0.0 -0.0 0.0 -0.0 -0.0651311 0.0551941 1.44425 1.76892 0.0768744 0.260544 26.1057 30.2603 4.31268 -29.826 0.0 0.0 0.0 0.0 0.0 
3466.98 742.66 -1529.66 -6.36728 66.743 4.20561 2.33558 0.35837 1.42508 2.33667 0.266971 1.44499 2.34332 0.0174308 1.46934 2.3404 0.249242 1.44815 -11.7766 15.7463 -2.07494 -12.3262 31.1808 2.62935 -0.0 0.0 -0.0 1.8361 8.41549 4.22805 -15.1663 -19.4044 59.5615 1.8316 -42.214 0.707065 -39.5205 -2.90031 4.02601 -3.61002 20.9906 -12.9332 -0.0 0.0 -0.0 10.2504 15.421 -20.2321 -26.4975 15.9924 -64.8024 0.32731 9.20998 -0.0263635 5.39296 -0.158552 0.670368 2.0821 -2.75778 -15.1351 0.0 0.0 0.0 -0.498577 9.59064 1.0066 -14.2636 0.319857 2.15991 28.9942 22.5743 -3.93751 -38.6957 0.0 0.0 -0.0 0.0 -0.0 0.665369 0.193988 1.21026 -0.849642 -0.0340512 -0.125941 27.9576 29.3005 4.5054 -30.4533 0.0 0.0 0.0 0.0 0.0 
3461.26 740.914 -1531.88 -7.38967 67.1174 4.82275 2.25417 0.330571 1.3964 2.25522 0.241054 1.4146 2.26112 -0.0050106 1.43498 2.25831 0.221658 1.41777 -10.5489 15.9842 -3.22273 -10.9616 32.2979 1.2123 -0.0 0.0 -0.0 1.78489 8.56682 4.1497 -15.5343 -20.0992 59.7611 1.92544 -43.6411 0.770984 -38.2395 -2.7659 3.93137 -3.70495 21.4451 -13.2345 -0.0 0.0 -0.0 10.3979 15.3658 -20.564 -25.2734 15.8513 -64.8472 0.24848 7.01739 -0.0152356 5.68263 -0.165274 0.706761 1.92053 -3.82459 -14.4375 0.0 0.0 0.0 -0.669949 9.36615 0.548305 -14.164 0.319499 2.14464 27.212 17.6901 -3.65273 -38.9724 0.0 0.0 -0.0 0.0 -0.0 -0.0214105 1.54634 1.44367 0.992388 0.0421354 0.146455 27.4577 29.701 4.46248 -31.1455 0.0 0.0 0.0 0.0 0.0 
